<svg width="33" height="33" viewBox="0 0 33 33" fill="none" xmlns="http://www.w3.org/2000/svg">
<path fill-rule="evenodd" clip-rule="evenodd" d="M4.8125 6.875C4.44783 6.875 4.09809 7.01987 3.84023 7.27773C3.58237 7.53559 3.4375 7.88533 3.4375 8.25C3.4375 8.61467 3.58237 8.96441 3.84023 9.22227C4.09809 9.48013 4.44783 9.625 4.8125 9.625H28.1875C28.5522 9.625 28.9019 9.48013 29.1598 9.22227C29.4176 8.96441 29.5625 8.61467 29.5625 8.25C29.5625 7.88533 29.4176 7.53559 29.1598 7.27773C28.9019 7.01987 28.5522 6.875 28.1875 6.875H4.8125ZM3.4375 16.5C3.4375 16.1353 3.58237 15.7856 3.84023 15.5277C4.09809 15.2699 4.44783 15.125 4.8125 15.125H28.1875C28.5522 15.125 28.9019 15.2699 29.1598 15.5277C29.4176 15.7856 29.5625 16.1353 29.5625 16.5C29.5625 16.8647 29.4176 17.2144 29.1598 17.4723C28.9019 17.7301 28.5522 17.875 28.1875 17.875H4.8125C4.44783 17.875 4.09809 17.7301 3.84023 17.4723C3.58237 17.2144 3.4375 16.8647 3.4375 16.5ZM3.4375 24.7514C3.4375 24.3867 3.58237 24.037 3.84023 23.7791C4.09809 23.5212 4.44783 23.3764 4.8125 23.3764H28.1875C28.5522 23.3764 28.9019 23.5212 29.1598 23.7791C29.4176 24.037 29.5625 24.3867 29.5625 24.7514C29.5625 25.116 29.4176 25.4658 29.1598 25.7236C28.9019 25.9815 28.5522 26.1264 28.1875 26.1264H4.8125C4.44783 26.1264 4.09809 25.9815 3.84023 25.7236C3.58237 25.4658 3.4375 25.116 3.4375 24.7514Z" fill="#1714C7"/>
</svg>
